<?xml version="1.0" encoding="UTF-8" standalone="no"?>
<!-- Created with Inkscape (http://www.inkscape.org/) -->

<svg
   xmlns:dc="http://purl.org/dc/elements/1.1/"
   xmlns:cc="http://creativecommons.org/ns#"
   xmlns:rdf="http://www.w3.org/1999/02/22-rdf-syntax-ns#"
   xmlns:svg="http://www.w3.org/2000/svg"
   xmlns="http://www.w3.org/2000/svg"
   xmlns:sodipodi="http://sodipodi.sourceforge.net/DTD/sodipodi-0.dtd"
   xmlns:inkscape="http://www.inkscape.org/namespaces/inkscape"
   id="svg2"
   version="1.1"
   inkscape:version="0.91 r13725"
   width="862.47913"
   height="794.92072"
   sodipodi:docname="joblib_logo.svg">
  <metadata
     id="metadata8">
    <rdf:RDF>
      <cc:Work
         rdf:about="">
        <dc:format>image/svg+xml</dc:format>
        <dc:type
           rdf:resource="http://purl.org/dc/dcmitype/StillImage" />
        <dc:title />
      </cc:Work>
    </rdf:RDF>
  </metadata>
  <defs
     id="defs6"/>
  <sodipodi:namedview
     pagecolor="#ffffff"
     bordercolor="#666666"
     borderopacity="1"
     objecttolerance="10"
     gridtolerance="10"
     guidetolerance="10"
     inkscape:pageopacity="1"
     inkscape:pageshadow="2"
     inkscape:window-width="1375"
     inkscape:window-height="876"
     id="namedview4"
     showgrid="false"
     inkscape:zoom="0.40606399"
     inkscape:cx="283.18477"
     inkscape:cy="221.99429"
     inkscape:window-x="65"
     inkscape:window-y="24"
     inkscape:window-maximized="1"
     inkscape:current-layer="g4547"
     fit-margin-top="0"
     fit-margin-left="0"
     fit-margin-right="0"
     fit-margin-bottom="0" />
  <path
     id="path4511"
     style="fill:#e15617;fill-opacity:1"
     d="m 179.48711,704.51315 c 25.6731,-6.687 45.51106,-24.97067 53.132,-48.96915 12.83348,-40.41288 -8.98799,-82.06777 -49.59456,-94.67082 -6.41612,-1.99137 -9.52324,-2.31714 -21.5,-2.25423 -12.51769,0.0658 -14.84703,0.36274 -22,2.80489 -4.4,1.50225 -11.15,4.57589 -15,6.83032 -8.35561,4.89277 -21.59533,17.98205 -26.365256,26.06569 -9.34902,15.84382 -12.610358,37.48469 -8.251105,54.7508 7.764823,30.75489 31.211191,52.11946 62.592911,57.03531 6.26718,0.98173 20.27622,0.15487 26.98601,-1.59281 z m -78.96256,84.65966 -15.999996,-6.65958 0.0403,-5.48391 c 0.02217,-3.01615 0.417864,-12.69774 0.879328,-21.51464 l 0.839026,-16.03074 -6.962465,-5.69621 c -6.98244,-5.71255 -14.099832,-12.87932 -19.98088,-20.1195 l -3.149351,-3.87717 -20.146587,1.27785 c -17.166889,1.08886 -20.338047,1.0707 -21.441108,-0.12282 C 12.667365,708.85192 1.8414234,680.96502 2.3994101,679.51093 2.6647965,678.81935 9.3586728,672.79322 17.274691,666.11954 L 31.667451,653.98557 31.498964,633.76549 31.330478,613.54541 16.213087,600.53098 C 7.8985222,593.37305 0.63503592,587.05589 0.07200642,586.49286 -0.98889987,585.43196 9.9853168,556.85054 12.449679,554.25627 c 0.999421,-1.05211 4.98014,-1.04255 21.64973,0.052 l 20.425145,1.34107 3,-3.07786 c 1.65,-1.69282 5.7,-6.01731 9,-9.60997 3.3,-3.59266 8.654668,-8.81112 11.899262,-11.59657 l 5.899262,-5.06446 -1.318617,-22.21385 c -1.134391,-19.11032 -1.120316,-22.33892 0.100738,-23.10905 3.438949,-2.16898 29.356251,-12.0066 30.913751,-11.73417 0.94958,0.1661 7.91336,7.60386 15.47507,16.52835 l 13.74855,16.22634 13.64099,-0.57548 c 7.50254,-0.31651 16.34099,-0.12864 19.64099,0.41749 3.3,0.54613 6.675,0.61675 7.5,0.15693 0.825,-0.45982 7.125,-7.57713 14,-15.81625 6.875,-8.23912 13.07737,-15.23171 13.78304,-15.53909 1.20338,-0.52418 30.81392,10.68955 32.48906,12.30385 0.42466,0.40923 0.10089,10.60687 -0.71948,22.66142 l -1.49158,21.91735 9.25705,9.01055 c 5.09138,4.95579 11.28485,11.35981 13.76327,14.23113 4.09932,4.74918 4.81832,5.18046 7.96243,4.77609 7.33264,-0.94306 39.89391,-2.65321 40.72597,-2.13898 0.48217,0.298 3.73673,7.59984 7.23234,16.2263 l 6.35567,15.68449 -4.43716,4.11575 c -2.44044,2.26367 -10.13344,8.93174 -17.09555,14.81794 l -12.65839,10.70217 -0.36753,17.79783 c -0.20215,9.7888 -0.12715,18.30001 0.16666,18.91379 0.29381,0.61378 7.2842,6.83478 15.5342,13.82444 8.25,6.98966 15.2994,13.24193 15.66532,13.89393 0.59939,1.06797 -10.81429,30.64796 -12.46125,32.29492 -0.37624,0.37624 -10.05007,0.10939 -21.4974,-0.59299 l -20.81333,-1.27707 -14.7268,14.7268 -14.7268,14.7268 1.12016,17.1436 c 0.61608,9.42898 0.96714,18.9222 0.78013,21.09605 l -0.34003,3.95244 -15.46617,6.18322 c -8.5064,3.40077 -15.9314,5.97807 -16.5,5.72734 -0.56861,-0.25073 -6.78161,-7.28678 -13.80667,-15.63566 l -12.77284,-15.17979 -19.20867,0.26723 c -13.6557,0.18997 -19.5325,0.6236 -20.32883,1.5 -0.61609,0.67802 -6.43305,7.53277 -12.92657,15.23277 -6.49353,7.7 -12.29777,14.51457 -12.89833,15.14348 -0.81221,0.85056 -5.19058,-0.56247 -17.09192,-5.51608 z"
     inkscape:connector-curvature="0" />
  <path
     id="path2987"
     style="fill:#000000;fill-opacity:1"
     d="m 467.65426,634.81886 c -0.79593,-1.2504 -3.98822,-10.14845 -7.09399,-19.77345 -3.10577,-9.625 -6.18435,-18.02015 -6.84129,-18.65589 -0.65694,-0.63574 -6.14443,-1.90756 -12.19443,-2.82625 -6.05,-0.9187 -15.3914,-2.74543 -20.75867,-4.0594 -5.36727,-1.31397 -10.31727,-2.15177 -11,-1.86177 -0.68273,0.28999 -7.09133,7.51488 -14.24133,16.0553 -7.15,8.54042 -13.35877,15.75224 -13.79727,16.02626 -1.32598,0.8286 -31.82974,-11.84565 -32.45954,-13.48688 -0.32197,-0.83906 -0.0137,-10.77991 0.68496,-22.09077 1.21473,-19.66466 1.18938,-20.62267 -0.57889,-21.87713 -1.01709,-0.72155 -6.34926,-4.07568 -11.84926,-7.45362 -5.5,-3.37795 -13.88845,-8.98305 -18.641,-12.45578 -4.75255,-3.47274 -9.37035,-6.31407 -10.26176,-6.31407 -0.89142,0 -8.81018,3.6 -17.59724,8 -8.78706,4.4 -16.5513,8 -17.25387,8 -1.64589,0 -24.74613,-23.12824 -24.74613,-24.77613 0,-0.68535 3.84242,-8.92089 8.53872,-18.3012 l 8.53871,-17.05512 -5.39951,-7.18378 c -6.53098,-8.68912 -16.6375,-24.00152 -20.38006,-30.87783 l -2.73541,-5.02586 -14.53123,0.84247 c -7.99217,0.46336 -17.45622,0.85034 -21.03122,0.85996 l -6.5,0.0175 -6.16912,-15 c -3.39301,-8.25 -6.20551,-15.54828 -6.25,-16.21839 -0.0445,-0.67012 6.10662,-6.4771 13.66912,-12.9044 7.5625,-6.4273 14.5843,-12.46332 15.604,-13.41338 1.80287,-1.67975 1.78223,-2.04094 -0.74828,-13.09561 -1.43125,-6.25253 -3.30567,-15.86823 -4.16537,-21.36823 -0.8597,-5.5 -2.00736,-10.45 -2.55035,-11 -0.543,-0.55 -9.62789,-3.925 -20.18864,-7.5 l -19.20136,-6.5 v -17.91646 -17.91647 l 20,-6.66624 20,-6.66624 2.09877,-12.4173 c 1.15433,-6.82951 3.06683,-16.61378 4.25,-21.74282 1.18318,-5.12904 2.15123,-9.93253 2.15123,-10.67442 0,-0.74189 -6.975,-7.28127 -15.5,-14.53196 -8.525,-7.25068 -15.488,-13.69719 -15.47334,-14.32557 0.0147,-0.62839 2.83392,-7.89252 6.26502,-16.14252 l 6.23836,-15 7.98498,0.006 c 4.39174,0.003 14.03282,0.22816 21.42462,0.5 l 13.43965,0.494 6.42976,-10.5 c 3.53636,-5.775 9.18852,-14.25831 12.56035,-18.85181 3.37183,-4.59349 6.71812,-9.16101 7.4362,-10.15004 1.13731,-1.56644 0.20273,-4.00111 -7.25,-18.88709 -4.70558,-9.39886 -8.5556,-17.64958 -8.5556,-18.33493 0,-1.64749 23.10003,-24.77613 24.74548,-24.77613 0.7022,0 8.96672,3.85002 18.36558,8.5556 14.86044,7.43994 17.32112,8.38536 18.87001,7.25 14.41389,-10.56547 23.20349,-16.55807 31.26893,-21.31859 l 9.75,-5.75481 -0.009,-5.6161 c -0.005,-3.08886 -0.46136,-11.89349 -1.01452,-19.56586 -0.79291,-11.00074 -0.7382,-14.19298 0.259,-15.10024 1.74954,-1.59175 28.59423,-12.45 30.77994,-12.45 1.0578,0 6.73943,5.89557 14.05909,14.58849 14.07251,16.71268 10.61016,15.42694 29.92549,11.11279 6.325,-1.41271 15.32297,-3.08501 19.99548,-3.71621 4.67252,-0.63121 9.03374,-1.59436 9.69161,-2.14034 0.65786,-0.54598 3.73818,-8.61962 6.84514,-17.94142 L 468.20579,0 l 17.57668,0.27271 17.57667,0.2727 5.58271,16.52288 c 3.07048,9.08758 5.92729,17.04358 6.34846,17.68001 0.42117,0.63642 3.34617,1.45889 6.5,1.8277 7.45074,0.87128 34.52791,6.25037 37.88173,7.52548 3.28758,1.24994 3.09565,1.41493 16.0016,-13.75445 5.75635,-6.76589 11.08026,-12.30162 11.8309,-12.30162 0.75064,0 8.14972,2.7594 16.4424,6.13201 l 15.07761,6.132 -0.10021,7.618 c -0.0551,4.18989 -0.39262,12.09466 -0.75,17.56616 -0.52952,8.10683 -0.37215,10.24964 0.85021,11.57694 0.825,0.89583 6.25472,4.44227 12.06604,7.88098 5.81133,3.43871 15.17058,9.64125 20.79835,13.78343 l 10.2323,7.53124 16.85784,-8.61038 c 9.27182,-4.73571 17.4696,-8.61038 18.21729,-8.61038 1.70249,0 24.82818,23.07781 24.82818,24.77678 0,0.68571 -3.6,8.43616 -8,17.22322 -4.4,8.78706 -8,16.84724 -8,17.91151 0,1.06427 1.06241,3.20707 2.36092,4.76176 3.71959,4.45348 16.89524,24.13375 21.21528,31.68895 l 3.9238,6.86223 15.5,-0.80768 c 8.525,-0.44422 17.29886,-0.83222 19.49746,-0.86222 l 3.99746,-0.0546 6.17165,15 c 3.39442,8.25 6.20806,15.68242 6.25255,16.51649 0.0445,0.83407 -6.21912,6.8378 -13.91912,13.34161 -8.66681,7.32044 -14,12.52784 -14,13.66981 0,1.01457 1.11279,6.44038 2.47287,12.05735 1.36008,5.61697 3.1895,15.20814 4.06539,21.31371 0.87589,6.10556 1.93264,11.74909 2.34835,12.54116 0.41571,0.79207 8.37378,3.97931 17.68461,7.08274 l 16.92878,5.64262 0.27165,17.93147 0.27164,17.93148 -17.52079,5.80829 c -14.79237,4.90379 -17.59423,6.14738 -17.99235,7.98578 -0.25935,1.19762 -1.37902,7.71272 -2.48814,14.47801 -1.10913,6.76528 -2.92232,15.9396 -4.0293,20.38738 -1.10699,4.44777 -2.01271,8.5988 -2.01271,9.2245 0,0.62571 6.3,6.4672 14,12.9811 7.7,6.5139 14.00518,12.35264 14.01151,12.97498 0.0218,2.14818 -12.36343,31.55241 -13.43601,31.89879 -0.59152,0.19103 -8.7255,-0.15768 -18.0755,-0.77491 -9.35,-0.61723 -17.54328,-0.93974 -18.2073,-0.7167 -0.66401,0.22305 -4.20924,5.42727 -7.87829,11.56494 -3.66905,6.13767 -9.98826,15.73218 -14.0427,21.32114 -4.05444,5.58901 -7.37171,10.8818 -7.37171,11.76181 0,0.88001 3.6,8.78944 8,17.5765 4.4,8.78706 8,16.77661 8,17.75455 0,2.29652 -21.97786,24.24545 -24.27741,24.24545 -0.96036,0 -8.93553,-3.6 -17.72259,-8 -8.78706,-4.4 -16.68564,-8 -17.55239,-8 -0.86674,0 -6.54697,3.59736 -12.62271,7.99412 -6.07574,4.39677 -15.03022,10.29309 -19.89883,13.10293 -4.86862,2.80985 -9.37768,5.74218 -10.02015,6.5163 -0.89115,1.07378 -0.87928,5.93673 0.0501,20.51 0.66999,10.50638 0.84148,19.43697 0.38109,19.84575 -0.83352,0.74006 -30.72669,13.0309 -31.69315,13.0309 -0.27911,0 -6.23847,-6.75 -13.24302,-15 -7.00454,-8.25 -13.26821,-15 -13.91927,-15 -0.65105,0 -5.63827,1.09069 -11.0827,2.42375 -5.44443,1.33306 -14.84897,3.17759 -20.89897,4.09894 -6.05,0.92136 -11.45,2.09947 -12,2.61802 -0.55,0.51855 -3.96216,9.81153 -7.58258,20.65106 l -6.58259,19.70823 -17.129,0.27345 c -16.86561,0.26924 -17.15125,0.23849 -18.57612,-2 z m 52.89656,-176.31101 c 5.8585,-1.56174 17.8418,-6.39607 26.62956,-10.74297 36.29609,-17.95404 61.01702,-46.79506 74.21828,-86.58779 4.93957,-14.88936 5.41065,-18.39001 5.53474,-41.12882 0.11416,-20.91675 -0.51185,-27.10425 -3.95152,-39.05668 -11.92855,-41.45037 -39.82461,-74.68677 -77.57681,-92.42792 -23.21334,-10.9088 -36.75942,-13.9373 -62.13563,-13.89168 -22.47773,0.0405 -34.8381,2.37713 -54.4269,10.2894 -18.37668,7.42268 -30.35375,15.70139 -47.74601,33.00267 -15.01679,14.93824 -17.99949,19.00377 -26.05234,35.51032 -12.43769,25.49443 -15.43565,38.28405 -15.39721,65.68624 0.0243,17.36418 0.87386,25.17569 3.90535,35.91119 15.5763,55.16052 60.01109,96.07296 115.31392,106.17299 12.17536,2.22358 49.24635,0.57875 61.68457,-2.73695 z"
     inkscape:connector-curvature="0" />
  <g
     id="g4547">
    <g
       style="font-family:'Ubuntu Mono'"
       id="text4523">
      <path
         d="m 422.27256,745.82444 q 0,7.875 -2.1,14.875 -1.925,7 -6.65,12.25 -4.55,5.25 -11.9,8.4 -7.35,2.975 -17.85,2.975 -11.025,0 -18.375,-2.8 -7.35,-2.8 -12.425,-6.825 l 8.225,-17.15 q 4.375,2.8 9.625,5.425 5.425,2.625 11.025,2.625 8.4,0 13.475,-4.375 5.25,-4.55 5.25,-16.625 l 0,-53.025 -36.225,0 0,-17.85 57.925,0 0,72.1 z"
         style="font-style:normal;font-variant:normal;font-weight:bold;font-stretch:normal;font-size:175px;text-align:start;writing-mode:lr-tb;text-anchor:start;fill:#000000;fill-opacity:1"
         id="path3422" />
      <path
         d="m 515.72256,740.74944 q 0,9.8 -2.8,17.85 -2.8,7.875 -7.875,13.65 -5.075,5.775 -12.25,8.925 -7,3.15 -15.75,3.15 -8.75,0 -15.925,-3.15 -7,-3.15 -12.25,-8.925 -5.075,-5.775 -7.875,-13.65 -2.8,-8.05 -2.8,-17.85 0,-9.625 2.8,-17.5 2.975,-8.05 8.05,-13.65 5.25,-5.775 12.425,-8.75 7.175,-3.15 15.575,-3.15 8.575,0 15.575,3.15 7.175,2.975 12.25,8.75 5.25,5.6 8.05,13.65 2.8,7.875 2.8,17.5 z m -55.65,0.175 q 0,11.025 3.85,17.85 4.025,6.825 12.775,6.825 8.4,0 12.6,-6.825 4.375,-6.825 4.375,-17.85 0,-11.025 -4.025,-17.675 -3.85,-6.825 -12.6,-6.825 -8.4,0 -12.775,6.825 -4.2,6.65 -4.2,17.675 z"
         style="font-style:normal;font-variant:normal;font-weight:bold;font-stretch:normal;font-size:175px;text-align:start;writing-mode:lr-tb;text-anchor:start;fill:#000000;fill-opacity:1"
         id="path3424" />
      <path
         d="m 580.99756,740.39944 q 0,-11.55 -3.85,-17.675 -3.675,-6.125 -11.375,-6.125 -3.5,0 -7,1.05 -3.325,0.875 -5.775,2.275 l 0,44.625 q 2.45,0.525 5.075,0.7 2.8,0.175 4.725,0.175 8.4,0 13.3,-5.6 4.9,-5.775 4.9,-19.425 z m 21.875,0.525 q 0,9.8 -2.625,17.85 -2.625,7.875 -7.7,13.475 -5.075,5.6 -12.425,8.75 -7.35,2.975 -16.8,2.975 -8.4,0 -17.15,-1.225 -8.75,-1.225 -14.7,-3.15 l 0,-115.325 21.525,-3.675 0,41.125 q 4.55,-2.1 8.75,-2.8 4.2,-0.875 8.4,-0.875 8.05,0 14.175,3.15 6.125,2.975 10.15,8.75 4.2,5.6 6.3,13.475 2.1,7.875 2.1,17.5 z"
         style="font-style:normal;font-variant:normal;font-weight:bold;font-stretch:normal;font-size:175px;text-align:start;writing-mode:lr-tb;text-anchor:start;fill:#000000;fill-opacity:1"
         id="path3426" />
    </g>
    <g
       style="font-family:'Ubuntu Mono'"
       id="text4523-0">
      <path
         d="m 686.95413,778.74146 q -0.525,0.35 -2.45,1.225 -1.75,0.875 -4.725,1.925 -2.975,0.875 -7.35,1.575 -4.2,0.7 -9.625,0.7 -14.875,0 -21.7,-8.75 -6.825,-8.925 -6.825,-25.9 l 0,-69.825 -22.75,0 0,-17.85 44.275,0 0,89.25 q 0,8.4 3.325,11.375 3.325,2.975 8.4,2.975 6.475,0 10.85,-1.75 4.375,-1.75 5.775,-2.275 l 2.8,17.325 z"
         style="font-style:normal;font-variant:normal;font-weight:bold;font-stretch:normal;font-size:175px;text-align:start;writing-mode:lr-tb;text-anchor:start;fill:#e15617;fill-opacity:1"
         id="path3415" />
      <path
         d="m 742.42913,676.36646 q 0,6.3 -4.025,9.975 -4.025,3.675 -9.625,3.675 -5.6,0 -9.625,-3.675 -3.85,-3.675 -3.85,-9.975 0,-6.475 3.85,-10.15 4.025,-3.675 9.625,-3.675 5.6,0 9.625,3.675 4.025,3.675 4.025,10.15 z m 32.025,102.375 q -6.65,3.15 -12.6,4.2 -5.775,1.225 -10.675,1.225 -8.4,0 -14.175,-2.45 -5.6,-2.45 -9.1,-7 -3.325,-4.725 -4.725,-11.375 -1.4,-6.65 -1.4,-15.225 l 0,-30.275 -22.75,0 0,-17.85 44.275,0 0,50.925 q 0,7.35 2.625,11.025 2.8,3.5 9.1,3.5 2.975,0 7.175,-0.7 4.2,-0.875 9.45,-3.325 l 2.8,17.325 z"
         style="font-style:normal;font-variant:normal;font-weight:bold;font-stretch:normal;font-size:175px;text-align:start;writing-mode:lr-tb;text-anchor:start;fill:#e15617;fill-opacity:1"
         id="path3417" />
      <path
         d="m 840.60413,740.59146 q 0,-11.55 -3.85,-17.675 -3.675,-6.125 -11.375,-6.125 -3.5,0 -7,1.05 -3.325,0.875 -5.775,2.275 l 0,44.625 q 2.45,0.525 5.075,0.7 2.8,0.175 4.725,0.175 8.4,0 13.3,-5.6 4.9,-5.775 4.9,-19.425 z m 21.875,0.525 q 0,9.8 -2.625,17.85 -2.625,7.875 -7.7,13.475 -5.075,5.6 -12.425,8.75 -7.35,2.975 -16.8,2.975 -8.4,0 -17.15,-1.225 -8.75,-1.225 -14.7,-3.15 l 0,-115.325 21.525,-3.675 0,41.125 q 4.55,-2.1 8.75,-2.8 4.2,-0.875 8.4,-0.875 8.05,0 14.175,3.15 6.125,2.975 10.15,8.75 4.2,5.6 6.3,13.475 2.1,7.875 2.1,17.5 z"
         style="font-style:normal;font-variant:normal;font-weight:bold;font-stretch:normal;font-size:175px;text-align:start;writing-mode:lr-tb;text-anchor:start;fill:#e15617;fill-opacity:1"
         id="path3419" />
    </g>
  </g>
</svg>
